<svg width="282" height="71" viewBox="0 0 282 71" fill="none" xmlns="http://www.w3.org/2000/svg">
<path d="M22.15 1.7C23.3833 1.53333 24.85 1.4 26.55 1.3C28.25 1.2 29.7333 1.15 31 1.15C32.2333 1.15 33.7 1.2 35.4 1.3C37.1333 1.4 38.6 1.56666 39.8 1.8L61.45 69C60.3833 69.6 59.0167 70.05 57.35 70.35C55.6833 70.6833 54.1167 70.85 52.65 70.85C50.25 70.85 48.3667 70.3 47 69.2C45.6333 68.0667 44.4833 65.8667 43.55 62.6L35.9 35.95C35.1 33.1167 34.1833 29.85 33.15 26.15C32.15 22.45 31.25 18.9833 30.45 15.75H29.85C29.35 18.45 28.6167 21.55 27.65 25.05C26.7167 28.5167 25.8667 31.55 25.1 34.15L14.4 70.1C13.4667 70.3333 12.45 70.4833 11.35 70.55C10.25 70.6167 9.11667 70.65 7.95 70.65C6.78333 70.65 5.48333 70.5667 4.05 70.4C2.61667 70.2333 1.45 69.9833 0.55 69.65L7.07805e-08 68.85L22.15 1.7ZM23.05 55.4C22.5833 55.4 22.0167 55.4 21.35 55.4C20.6833 55.3667 20.0167 55.35 19.35 55.35C18.7167 55.3167 18.1667 55.3 17.7 55.3H9.75L14.45 43.35H21.4C21.8667 43.35 22.4167 43.35 23.05 43.35C23.6833 43.3167 24.3167 43.3 24.95 43.3C25.5833 43.2667 26.1167 43.25 26.55 43.25H34.2C34.6667 43.25 35.2167 43.2667 35.85 43.3C36.4833 43.3 37.1167 43.3167 37.75 43.35C38.3833 43.35 38.9333 43.35 39.4 43.35H46.6L50.45 55.3H42.55C42.0833 55.3 41.5167 55.3167 40.85 55.35C40.1833 55.35 39.5167 55.3667 38.85 55.4C38.2167 55.4 37.6667 55.4 37.2 55.4H23.05ZM65.1766 4.05C66.6766 3.01667 68.3099 2.21666 70.0766 1.64999C71.8432 1.04999 73.5266 0.749995 75.1266 0.749995C77.2932 0.749995 79.0766 1.18333 80.4766 2.05C81.9099 2.91666 83.3432 4.46666 84.7766 6.7L122.727 67.65C121.193 68.6833 119.543 69.4833 117.777 70.05C116.01 70.65 114.327 70.95 112.727 70.95C110.593 70.95 108.793 70.5167 107.327 69.65C105.86 68.75 104.393 67.1667 102.927 64.9L65.1766 4.05ZM105.927 1.7C106.727 1.53333 107.66 1.4 108.727 1.3C109.793 1.2 110.977 1.15 112.277 1.15C113.743 1.15 115.193 1.26666 116.627 1.49999C118.093 1.73333 119.31 2.03333 120.277 2.39999L120.677 3.2L99.4266 38.05L93.2266 45.05L78.3766 70C77.6099 70.1667 76.6766 70.3 75.5766 70.4C74.4766 70.5 73.2766 70.55 71.9766 70.55C70.5432 70.55 69.0932 70.4167 67.6266 70.15C66.1599 69.9167 64.8932 69.6333 63.8266 69.3L63.4266 68.45L86.7766 30.5L92.9766 23.6L105.927 1.7ZM146.707 70.25H140.257C137.557 70.25 135.407 69.4667 133.807 67.9C132.207 66.3 131.407 64.1 131.407 61.3V1.75L132.107 1.05H137.707C140.674 1.05 142.907 1.81666 144.407 3.35C145.94 4.88333 146.707 7.35 146.707 10.75V70.25ZM173.707 57.1C173.707 61.9667 172.924 65.3833 171.357 67.35C169.79 69.2833 167.124 70.25 163.357 70.25H140.257L132.107 59.2C136.307 58.4667 140.474 57.9333 144.607 57.6C148.774 57.2667 152.574 57.1 156.007 57.1H173.707ZM185.192 39.75H200.492V70C199.259 70.2333 197.942 70.3833 196.542 70.45C195.176 70.5167 193.976 70.55 192.942 70.55C192.009 70.55 190.792 70.5167 189.292 70.45C187.792 70.3833 186.426 70.2333 185.192 70V39.75ZM205.492 1.7C206.559 1.46666 207.609 1.31666 208.642 1.24999C209.676 1.18333 210.692 1.15 211.692 1.15C212.992 1.15 214.309 1.23333 215.642 1.4C216.976 1.56666 218.159 1.83333 219.192 2.2L219.792 3.04999L199.692 50.8H186.192L165.892 3.5C167.259 2.73333 168.759 2.11666 170.392 1.64999C172.026 1.15 173.642 0.899996 175.242 0.899996C177.409 0.899996 179.076 1.38333 180.242 2.35C181.409 3.31666 182.426 4.88333 183.292 7.05L188.492 19.95C189.292 22.0167 190.076 24.2333 190.842 26.6C191.609 28.9667 192.326 31.45 192.992 34.05H193.542C193.976 32.4167 194.459 30.75 194.992 29.05C195.526 27.35 196.076 25.6833 196.642 24.05C197.242 22.4167 197.826 20.8833 198.392 19.45L205.492 1.7ZM227.503 1.95C228.703 1.68333 230.253 1.48333 232.153 1.35C234.086 1.21666 235.553 1.15 236.553 1.15C237.553 1.15 238.87 1.18333 240.503 1.24999C242.136 1.31666 243.77 1.46666 245.403 1.7L241.553 19.1L240.503 19.4C240.77 22.1667 240.986 25.3 241.153 28.8C241.32 32.2667 241.453 35.75 241.553 39.25C241.653 42.7167 241.703 45.8167 241.703 48.55V70C240.47 70.2333 239.236 70.3833 238.003 70.45C236.803 70.5167 235.72 70.55 234.753 70.55C233.853 70.55 232.72 70.5167 231.353 70.45C229.986 70.3833 228.703 70.2333 227.503 70V1.95ZM246.603 33.35C245.47 30.7833 244.42 28.2833 243.453 25.85C242.486 23.3833 241.636 21.1833 240.903 19.25L233.853 11.05L245.403 1.7L261.603 38.25C262.87 41.15 264.053 43.9333 265.153 46.6C266.253 49.2333 267.186 51.4833 267.953 53.35L275.653 61.7L263.153 70L246.603 33.35ZM281.253 1.75V69.75C280.02 70.0167 278.436 70.2167 276.503 70.35C274.57 70.4833 273.086 70.55 272.053 70.55C271.02 70.55 269.686 70.5167 268.053 70.45C266.453 70.3833 264.82 70.2333 263.153 70L267.203 53.5L268.303 53.15C268.036 50.1167 267.82 46.8 267.653 43.2C267.486 39.6 267.353 36.1333 267.253 32.8C267.186 29.4333 267.153 26.6 267.153 24.3V10.3C267.153 6.9 267.836 4.51667 269.203 3.15C270.57 1.75 272.72 1.05 275.653 1.05H280.553L281.253 1.75Z" fill="url(#paint0_linear_115_55)"/>
<defs>
<linearGradient id="paint0_linear_115_55" x1="190.304" y1="8.39999" x2="105.167" y2="135.254" gradientUnits="userSpaceOnUse">
<stop stop-color="#2DC4B7"/>
<stop offset="1" stop-color="#1A5A7C"/>
</linearGradient>
</defs>
</svg>
