<svg width="378" height="97" viewBox="0 0 378 97" fill="none" xmlns="http://www.w3.org/2000/svg">
<path d="M105.15 25.7C106.383 25.5333 107.85 25.4 109.55 25.3C111.25 25.2 112.733 25.15 114 25.15C115.233 25.15 116.7 25.2 118.4 25.3C120.133 25.4 121.6 25.5667 122.8 25.8L144.45 93C143.383 93.6 142.017 94.05 140.35 94.35C138.683 94.6833 137.117 94.85 135.65 94.85C133.25 94.85 131.367 94.3 130 93.2C128.633 92.0667 127.483 89.8667 126.55 86.6L118.9 59.95C118.1 57.1167 117.183 53.85 116.15 50.15C115.15 46.45 114.25 42.9833 113.45 39.75H112.85C112.35 42.45 111.617 45.55 110.65 49.05C109.717 52.5167 108.867 55.55 108.1 58.15L97.4 94.1C96.4667 94.3333 95.45 94.4833 94.35 94.55C93.25 94.6167 92.1167 94.65 90.95 94.65C89.7833 94.65 88.4833 94.5667 87.05 94.4C85.6167 94.2333 84.45 93.9833 83.55 93.65L83 92.85L105.15 25.7ZM106.05 79.4C105.583 79.4 105.017 79.4 104.35 79.4C103.683 79.3667 103.017 79.35 102.35 79.35C101.717 79.3167 101.167 79.3 100.7 79.3H92.75L97.45 67.35H104.4C104.867 67.35 105.417 67.35 106.05 67.35C106.683 67.3167 107.317 67.3 107.95 67.3C108.583 67.2667 109.117 67.25 109.55 67.25H117.2C117.667 67.25 118.217 67.2667 118.85 67.3C119.483 67.3 120.117 67.3167 120.75 67.35C121.383 67.35 121.933 67.35 122.4 67.35H129.6L133.45 79.3H125.55C125.083 79.3 124.517 79.3167 123.85 79.35C123.183 79.35 122.517 79.3667 121.85 79.4C121.217 79.4 120.667 79.4 120.2 79.4H106.05ZM148.177 28.05C149.677 27.0167 151.31 26.2167 153.077 25.65C154.843 25.05 156.527 24.75 158.127 24.75C160.293 24.75 162.077 25.1833 163.477 26.05C164.91 26.9167 166.343 28.4667 167.777 30.7L205.727 91.65C204.193 92.6833 202.543 93.4833 200.777 94.05C199.01 94.65 197.327 94.95 195.727 94.95C193.593 94.95 191.793 94.5167 190.327 93.65C188.86 92.75 187.393 91.1667 185.927 88.9L148.177 28.05ZM188.927 25.7C189.727 25.5333 190.66 25.4 191.727 25.3C192.793 25.2 193.977 25.15 195.277 25.15C196.743 25.15 198.193 25.2667 199.627 25.5C201.093 25.7333 202.31 26.0333 203.277 26.4L203.677 27.2L182.427 62.05L176.227 69.05L161.377 94C160.61 94.1667 159.677 94.3 158.577 94.4C157.477 94.5 156.277 94.55 154.977 94.55C153.543 94.55 152.093 94.4167 150.627 94.15C149.16 93.9167 147.893 93.6333 146.827 93.3L146.427 92.45L169.777 54.5L175.977 47.6L188.927 25.7ZM229.707 94.25H223.257C220.557 94.25 218.407 93.4667 216.807 91.9C215.207 90.3 214.407 88.1 214.407 85.3V25.75L215.107 25.05H220.707C223.674 25.05 225.907 25.8167 227.407 27.35C228.94 28.8833 229.707 31.35 229.707 34.75V94.25ZM256.707 81.1C256.707 85.9667 255.924 89.3833 254.357 91.35C252.79 93.2833 250.124 94.25 246.357 94.25H223.257L215.107 83.2C219.307 82.4667 223.474 81.9333 227.607 81.6C231.774 81.2667 235.574 81.1 239.007 81.1H256.707ZM268.192 63.75H283.492V94C282.259 94.2333 280.942 94.3833 279.542 94.45C278.176 94.5167 276.976 94.55 275.942 94.55C275.009 94.55 273.792 94.5167 272.292 94.45C270.792 94.3833 269.426 94.2333 268.192 94V63.75ZM288.492 25.7C289.559 25.4667 290.609 25.3167 291.642 25.25C292.676 25.1833 293.692 25.15 294.692 25.15C295.992 25.15 297.309 25.2333 298.642 25.4C299.976 25.5667 301.159 25.8333 302.192 26.2L302.792 27.05L282.692 74.8H269.192L248.892 27.5C250.259 26.7333 251.759 26.1167 253.392 25.65C255.026 25.15 256.642 24.9 258.242 24.9C260.409 24.9 262.076 25.3833 263.242 26.35C264.409 27.3167 265.426 28.8833 266.292 31.05L271.492 43.95C272.292 46.0167 273.076 48.2333 273.842 50.6C274.609 52.9667 275.326 55.45 275.992 58.05H276.542C276.976 56.4167 277.459 54.75 277.992 53.05C278.526 51.35 279.076 49.6833 279.642 48.05C280.242 46.4167 280.826 44.8833 281.392 43.45L288.492 25.7ZM310.503 25.95C311.703 25.6833 313.253 25.4833 315.153 25.35C317.086 25.2167 318.553 25.15 319.553 25.15C320.553 25.15 321.87 25.1833 323.503 25.25C325.136 25.3167 326.77 25.4667 328.403 25.7L324.553 43.1L323.503 43.4C323.77 46.1667 323.986 49.3 324.153 52.8C324.32 56.2667 324.453 59.75 324.553 63.25C324.653 66.7167 324.703 69.8167 324.703 72.55V94C323.47 94.2333 322.236 94.3833 321.003 94.45C319.803 94.5167 318.72 94.55 317.753 94.55C316.853 94.55 315.72 94.5167 314.353 94.45C312.986 94.3833 311.703 94.2333 310.503 94V25.95ZM329.603 57.35C328.47 54.7833 327.42 52.2833 326.453 49.85C325.486 47.3833 324.636 45.1833 323.903 43.25L316.853 35.05L328.403 25.7L344.603 62.25C345.87 65.15 347.053 67.9333 348.153 70.6C349.253 73.2333 350.186 75.4833 350.953 77.35L358.653 85.7L346.153 94L329.603 57.35ZM364.253 25.75V93.75C363.02 94.0167 361.436 94.2167 359.503 94.35C357.57 94.4833 356.086 94.55 355.053 94.55C354.02 94.55 352.686 94.5167 351.053 94.45C349.453 94.3833 347.82 94.2333 346.153 94L350.203 77.5L351.303 77.15C351.036 74.1167 350.82 70.8 350.653 67.2C350.486 63.6 350.353 60.1333 350.253 56.8C350.186 53.4333 350.153 50.6 350.153 48.3V34.3C350.153 30.9 350.836 28.5167 352.203 27.15C353.57 25.75 355.72 25.05 358.653 25.05H363.553L364.253 25.75Z" fill="url(#paint0_linear_115_54)"/>
<path d="M37 17.3094C39.4752 15.8803 42.5248 15.8803 45 17.3094L72.507 33.1906C74.9823 34.6197 76.507 37.2607 76.507 40.1188V71.8812C76.507 74.7393 74.9823 77.3803 72.507 78.8094L45 94.6906C42.5248 96.1197 39.4752 96.1197 37 94.6906L9.49296 78.8094C7.01775 77.3803 5.49296 74.7393 5.49296 71.8812V40.1188C5.49296 37.2607 7.01775 34.6197 9.49296 33.1906L37 17.3094Z" fill="#1A5A7C"/>
<path d="M41.028 31.1175C42.2513 30.4243 43.7487 30.4243 44.972 31.1175L64.3547 42.1008C65.6081 42.811 66.3827 44.1404 66.3827 45.5809V67.4191C66.3827 68.8596 65.6081 70.189 64.3547 70.8992L44.972 81.8825C43.7487 82.5757 42.2513 82.5757 41.028 81.8825L21.6453 70.8992C20.3919 70.189 19.6173 68.8596 19.6173 67.4191V45.5809C19.6173 44.1404 20.3919 42.811 21.6453 42.1008L41.028 31.1175Z" fill="#2DC4B7"/>
<path d="M43 43.1547C44.2376 42.4402 45.7624 42.4402 47 43.1547L56.8564 48.8453C58.094 49.5598 58.8564 50.8803 58.8564 52.3094V63.6906C58.8564 65.1197 58.094 66.4402 56.8564 67.1547L47 72.8453C45.7624 73.5598 44.2376 73.5598 43 72.8453L33.1436 67.1547C31.906 66.4402 31.1436 65.1197 31.1436 63.6906V52.3094C31.1436 50.8803 31.906 49.5598 33.1436 48.8453L43 43.1547Z" fill="#1A5A7C"/>
<defs>
<linearGradient id="paint0_linear_115_54" x1="273.304" y1="19.4" x2="188.167" y2="146.254" gradientUnits="userSpaceOnUse">
<stop stop-color="#2DC4B7"/>
<stop offset="1" stop-color="#1A5A7C"/>
</linearGradient>
</defs>
</svg>
